# Re-exported from art/enderman_portal.bbmodel for Create: Biotech
mtllib enderman_portal.mtl

o body
v 0.75 0.760312 0.742865
v 0.75 0.7169 0.496663
v 0.75 0.083257 0.862248
v 0.75 0.039844 0.616046
v 0.25 0.7169 0.496663
v 0.25 0.760312 0.742865
v 0.25 0.039844 0.616046
v 0.25 0.083257 0.862248
vt 0.5625 0.375
vt 0.6875 0.375
vt 0.6875 0.03125
vt 0.5625 0.03125
vt 0.5 0.375
vt 0.5625 0.375
vt 0.5625 0.03125
vt 0.5 0.03125
vt 0.75 0.375
vt 0.875 0.375
vt 0.875 0.03125
vt 0.75 0.03125
vt 0.6875 0.375
vt 0.75 0.375
vt 0.75 0.03125
vt 0.6875 0.03125
vt 0.6875 0.375
vt 0.5625 0.375
vt 0.5625 0.5
vt 0.6875 0.5
vt 0.8125 0.5
vt 0.6875 0.5
vt 0.6875 0.375
vt 0.8125 0.375
vn 0 -0.173648178 -0.984807753
vn 1 0 0
vn 0 0.173648178 0.984807753
vn -1 0 0
vn 0 0.984807753 -0.173648178
vn 0 -0.984807753 0.173648178
usemtl enderman
f 4/4/1 7/3/1 5/2/1 2/1/1
f 3/8/2 4/7/2 2/6/2 1/5/2
f 8/12/3 3/11/3 1/10/3 6/9/3
f 7/16/4 8/15/4 6/14/4 5/13/4
f 6/20/5 1/19/5 2/18/5 5/17/5
f 7/24/6 4/23/6 3/22/6 8/21/6

o head
v 0.802973 1.257734 0.736868
v 0.798418 1.128559 0.253864
v 0.750908 0.777458 0.865804
v 0.746353 0.648283 0.382799
v 0.301157 1.180029 0.244788
v 0.305712 1.309204 0.727793
v 0.249092 0.699754 0.373724
v 0.253647 0.828928 0.856728
vt 0.125 0.75
vt 0.25 0.75
vt 0.25 0.5
vt 0.125 0.5
vt 0 0.75
vt 0.125 0.75
vt 0.125 0.5
vt 0 0.5
vt 0.375 0.75
vt 0.5 0.75
vt 0.5 0.5
vt 0.375 0.5
vt 0.25 0.75
vt 0.375 0.75
vt 0.375 0.5
vt 0.25 0.5
vt 0.25 0.75
vt 0.125 0.75
vt 0.125 1
vt 0.25 1
vt 0.375 1
vt 0.25 1
vt 0.25 0.75
vt 0.375 0.75
vn -0.009110256 -0.25834885 -0.966008734
vn 0.994521895 -0.102940441 0.018151177
vn 0.009110256 0.25834885 0.966008734
vn -0.994521895 0.102940441 -0.018151177
vn 0.104130701 0.960551476 -0.257871402
vn -0.104130701 -0.960551476 0.257871402
usemtl enderman
f 12/28/7 15/27/7 13/26/7 10/25/7
f 11/32/8 12/31/8 10/30/8 9/29/8
f 16/36/9 11/35/9 9/34/9 14/33/9
f 15/40/10 16/39/10 14/38/10 13/37/10
f 14/44/11 9/43/11 10/42/11 13/41/11
f 15/48/12 12/47/12 11/46/12 16/45/12

o hat
v 0.768356 1.22286 0.714172
v 0.76437 1.109832 0.291543
v 0.722799 0.802619 0.82699
v 0.718813 0.689591 0.404362
v 0.329267 1.154869 0.283602
v 0.333252 1.267896 0.70623
v 0.28371 0.734627 0.39642
v 0.287695 0.847655 0.819049
vt 0.125 0.25
vt 0.25 0.25
vt 0.25 0
vt 0.125 0
vt 0 0.25
vt 0.125 0.25
vt 0.125 0
vt 0 0
vt 0.375 0.25
vt 0.5 0.25
vt 0.5 0
vt 0.375 0
vt 0.25 0.25
vt 0.375 0.25
vt 0.375 0
vt 0.25 0
vt 0.25 0.25
vt 0.125 0.25
vt 0.125 0.5
vt 0.25 0.5
vt 0.375 0.5
vt 0.25 0.5
vt 0.25 0.25
vt 0.375 0.25
vn -0.009110256 -0.25834885 -0.966008734
vn 0.994521895 -0.102940441 0.018151177
vn 0.009110256 0.25834885 0.966008734
vn -0.994521895 0.102940441 -0.018151177
vn 0.104130701 0.960551476 -0.257871402
vn -0.104130701 -0.960551476 0.257871402
usemtl enderman
f 20/52/13 23/51/13 21/50/13 18/49/13
f 19/56/14 20/55/14 18/54/14 17/53/14
f 24/60/15 19/59/15 17/58/15 22/57/15
f 23/64/16 24/63/16 22/62/16 21/61/16
f 22/68/17 17/67/17 18/66/17 21/65/17
f 23/72/18 20/71/18 19/70/18 24/69/18

o rightArm_upper
v 0.363455 0.555659 0.6815
v 0.37864 0.634585 0.585766
v 0.158333 0.116509 0.286915
v 0.173519 0.195436 0.19118
v 0.261545 0.675591 0.601
v 0.24636 0.596665 0.696734
v 0.056423 0.236442 0.206414
v 0.041238 0.157516 0.302148
vt 0.90625 0.9375
vt 0.9375 0.9375
vt 0.9375 0.625
vt 0.90625 0.625
vt 0.875 0.9375
vt 0.90625 0.9375
vt 0.90625 0.625
vt 0.875 0.625
vt 0.96875 0.9375
vt 1 0.9375
vt 1 0.625
vt 0.96875 0.625
vt 0.9375 0.9375
vt 0.96875 0.9375
vt 0.96875 0.625
vt 0.9375 0.625
vt 0.9375 0.9375
vt 0.90625 0.9375
vt 0.90625 1
vt 0.9375 1
vt 0.96875 1
vt 0.9375 1
vt 0.9375 0.9375
vt 0.96875 0.9375
vn 0.121480437 0.631411938 -0.765873011
vn 0.936766002 -0.328050789 -0.121869343
vn -0.121480437 -0.631411938 0.765873011
vn -0.936766002 0.328050789 0.121869343
vn 0.328195003 0.702639058 0.63133699
vn -0.328195003 -0.702639058 -0.63133699
usemtl enderman
f 28/76/19 31/75/19 29/74/19 26/73/19
f 27/80/20 28/79/20 26/78/20 25/77/20
f 32/84/21 27/83/21 25/82/21 30/81/21
f 31/88/22 32/87/22 30/86/22 29/85/22
f 30/92/23 25/91/23 26/90/23 29/89/23
f 31/96/24 28/95/24 27/94/24 32/93/24

o rightArm_lower
v 0.111251 0.25346 0.189641
v 0.085552 0.131175 0.186319
v 0.702967 0.124903 0.344462
v 0.677269 0.002618 0.34114
v 0.054577 0.134396 0.307377
v 0.080276 0.256681 0.310699
v 0.646294 0.005839 0.462199
v 0.671993 0.128124 0.46552
vt 0.90625 0.9375
vt 0.9375 0.9375
vt 0.9375 0.625
vt 0.90625 0.625
vt 0.875 0.9375
vt 0.90625 0.9375
vt 0.90625 0.625
vt 0.875 0.625
vt 0.96875 0.9375
vt 1 0.9375
vt 1 0.625
vt 0.96875 0.625
vt 0.9375 0.9375
vt 0.96875 0.9375
vt 0.96875 0.625
vt 0.9375 0.625
vt 0.9375 0.9375
vt 0.90625 0.9375
vt 0.90625 1
vt 0.9375 1
vt 0.96875 1
vt 0.9375 1
vt 0.9375 0.9375
vt 0.96875 0.9375
vn -0.205588181 -0.978277732 -0.026574013
vn 0.247799227 -0.025768238 -0.968468658
vn 0.205588181 0.978277732 0.026574013
vn -0.247799227 0.025768238 0.968468658
vn -0.946746557 0.20569073 -0.247714111
vn 0.946746557 -0.20569073 0.247714111
usemtl enderman
f 36/100/25 39/99/25 37/98/25 34/97/25
f 35/104/26 36/103/26 34/102/26 33/101/26
f 40/108/27 35/107/27 33/106/27 38/105/27
f 39/112/28 40/111/28 38/110/28 37/109/28
f 38/116/29 33/115/29 34/114/29 37/113/29
f 39/120/30 36/119/30 35/118/30 40/117/30

o leftArm_upper
v 0.75364 0.596665 0.696734
v 0.738455 0.675591 0.601
v 0.958762 0.157516 0.302148
v 0.943577 0.236442 0.206414
v 0.62136 0.634585 0.585766
v 0.636545 0.555659 0.6815
v 0.826481 0.195436 0.19118
v 0.841667 0.116509 0.286915
vt 0.90625 0.9375
vt 0.9375 0.9375
vt 0.9375 0.625
vt 0.90625 0.625
vt 0.875 0.9375
vt 0.90625 0.9375
vt 0.90625 0.625
vt 0.875 0.625
vt 0.96875 0.9375
vt 1 0.9375
vt 1 0.625
vt 0.96875 0.625
vt 0.9375 0.9375
vt 0.96875 0.9375
vt 0.96875 0.625
vt 0.9375 0.625
vt 0.9375 0.9375
vt 0.90625 0.9375
vt 0.90625 1
vt 0.9375 1
vt 0.96875 1
vt 0.9375 1
vt 0.9375 0.9375
vt 0.96875 0.9375
vn -0.121480437 0.631411938 -0.765873011
vn 0.936766002 0.328050789 0.121869343
vn 0.121480437 -0.631411938 0.765873011
vn -0.936766002 -0.328050789 -0.121869343
vn -0.328195003 0.702639058 0.63133699
vn 0.328195003 -0.702639058 -0.63133699
usemtl enderman
f 44/124/31 47/123/31 45/122/31 42/121/31
f 43/128/32 44/127/32 42/126/32 41/125/32
f 48/132/33 43/131/33 41/130/33 46/129/33
f 47/136/34 48/135/34 46/134/34 45/133/34
f 46/140/35 41/139/35 42/138/35 45/137/35
f 47/144/36 44/143/36 43/142/36 48/141/36

o leftArm_lower
v 0.980527 0.179956 0.265092
v 0.886365 0.135371 0.334162
v 0.804861 0.763812 0.402492
v 0.7107 0.719227 0.471563
v 0.81204 0.136658 0.233668
v 0.906201 0.181243 0.164597
v 0.636374 0.720514 0.371069
v 0.730535 0.765099 0.301998
vt 0.90625 0.9375
vt 0.9375 0.9375
vt 0.9375 0.625
vt 0.90625 0.625
vt 0.875 0.9375
vt 0.90625 0.9375
vt 0.90625 0.625
vt 0.875 0.625
vt 0.96875 0.9375
vt 1 0.9375
vt 1 0.625
vt 0.96875 0.625
vt 0.9375 0.9375
vt 0.96875 0.9375
vt 0.96875 0.625
vt 0.9375 0.625
vt 0.9375 0.9375
vt 0.90625 0.9375
vt 0.90625 1
vt 0.9375 1
vt 0.96875 1
vt 0.9375 1
vt 0.9375 0.9375
vt 0.96875 0.9375
vn -0.753290992 -0.356681431 0.552567678
vn 0.594604844 -0.010296297 0.803952154
vn 0.753290992 0.356681431 -0.552567678
vn -0.594604844 0.010296297 -0.803952154
vn 0.281065403 -0.934169333 -0.219840614
vn -0.281065403 0.934169333 0.219840614
usemtl enderman
f 52/148/37 55/147/37 53/146/37 50/145/37
f 51/152/38 52/151/38 50/150/38 49/149/38
f 56/156/39 51/155/39 49/154/39 54/153/39
f 55/160/40 56/159/40 54/158/40 53/157/40
f 54/164/41 49/163/41 50/162/41 53/161/41
f 55/168/42 52/167/42 51/166/42 56/165/42

o frame_n
v 0.875 0.125 0.125
v 0.875 0.125 0
v 0.875 0.0625 0.125
v 0.875 0.0625 0
v 0.125 0.125 0
v 0.125 0.125 0.125
v 0.125 0.0625 0
v 0.125 0.0625 0.125
vt 0.125 0.9375
vt 0.875 0.9375
vt 0.875 0.875
vt 0.125 0.875
vt 0.9375 0.8125
vt 1 0.8125
vt 1 0.6875
vt 0.9375 0.6875
vt 0.5 0.875
vt 1 0.875
vt 1 0.125
vt 0.5 0.125
vt 0.9375 0.8125
vt 1 0.8125
vt 1 0.6875
vt 0.9375 0.6875
vt 0 0.875
vt 1 0.875
vt 1 0.125
vt 0 0.125
vn 0 0 -1
vn 1 0 0
vn 0 0 1
vn -1 0 0
vn 0 1 0
usemtl andesite_casing
f 60/172/43 63/171/43 61/170/43 58/169/43
usemtl nether_portal
f 59/176/44 60/175/44 58/174/44 57/173/44
usemtl detail
f 64/177/45 59/180/45 57/179/45 62/178/45
usemtl nether_portal
f 63/184/46 64/183/46 62/182/46 61/181/46
usemtl detail
f 62/186/47 57/187/47 58/188/47 61/185/47

o frame_s
v 0.875 0.125 1
v 0.875 0.125 0.875
v 0.875 0.0625 1
v 0.875 0.0625 0.875
v 0.125 0.125 0.875
v 0.125 0.125 1
v 0.125 0.0625 0.875
v 0.125 0.0625 1
vt 0.5 0.875
vt 1 0.875
vt 1 0.125
vt 0.5 0.125
vt 0.9375 0.6875
vt 1 0.6875
vt 1 0.5625
vt 0.9375 0.5625
vt 0.125 0.9375
vt 0.875 0.9375
vt 0.875 0.875
vt 0.125 0.875
vt 0.9375 0.6875
vt 1 0.6875
vt 1 0.5625
vt 0.9375 0.5625
vt 0 0.875
vt 1 0.875
vt 1 0.125
vt 0 0.125
vn 0 0 -1
vn 1 0 0
vn 0 0 1
vn -1 0 0
vn 0 1 0
usemtl detail
f 68/189/48 71/192/48 69/191/48 66/190/48
usemtl nether_portal
f 67/196/49 68/195/49 66/194/49 65/193/49
usemtl andesite_casing
f 72/200/50 67/199/50 65/198/50 70/197/50
usemtl nether_portal
f 71/204/51 72/203/51 70/202/51 69/201/51
usemtl detail
f 70/208/52 65/205/52 66/206/52 69/207/52

o frame_w
v 0.125 0.125 1
v 0.125 0.125 0
v 0.125 0.0625 1
v 0.125 0.0625 0
v 0 0.125 0
v 0 0.125 1
v 0 0.0625 0
v 0 0.0625 1
vt 0.875 0.9375
vt 1 0.9375
vt 1 0.875
vt 0.875 0.875
vt 0.5 1
vt 1 1
vt 1 0
vt 0.5 0
vt 0 0.9375
vt 0.125 0.9375
vt 0.125 0.875
vt 0 0.875
vt 0 0.9375
vt 1 0.9375
vt 1 0.875
vt 0 0.875
vt 0 1
vt 1 1
vt 1 0
vt 0 0
vn 0 0 -1
vn 1 0 0
vn 0 0 1
vn -1 0 0
vn 0 1 0
usemtl andesite_casing
f 76/212/53 79/211/53 77/210/53 74/209/53
usemtl detail
f 75/213/54 76/216/54 74/215/54 73/214/54
usemtl andesite_casing
f 80/220/55 75/219/55 73/218/55 78/217/55
f 79/224/56 80/223/56 78/222/56 77/221/56
usemtl detail
f 78/228/57 73/227/57 74/226/57 77/225/57

o frame_e
v 1 0.125 1
v 1 0.125 0
v 1 0.0625 1
v 1 0.0625 0
v 0.875 0.125 0
v 0.875 0.125 1
v 0.875 0.0625 0
v 0.875 0.0625 1
vt 0 0.9375
vt 0.125 0.9375
vt 0.125 0.875
vt 0 0.875
vt 0 0.9375
vt 1 0.9375
vt 1 0.875
vt 0 0.875
vt 0.875 0.9375
vt 1 0.9375
vt 1 0.875
vt 0.875 0.875
vt 0.5 1
vt 1 1
vt 1 0
vt 0.5 0
vt 1 1
vt 0 1
vt 0 0
vt 1 0
vn 0 0 -1
vn 1 0 0
vn 0 0 1
vn -1 0 0
vn 0 1 0
usemtl andesite_casing
f 84/232/58 87/231/58 85/230/58 82/229/58
f 83/236/59 84/235/59 82/234/59 81/233/59
f 88/240/60 83/239/60 81/238/60 86/237/60
usemtl detail
f 87/241/61 88/244/61 86/243/61 85/242/61
f 86/248/62 81/247/62 82/246/62 85/245/62

o portal
v 1 0.0625 1
v 1 0.0625 0
v 1 0 1
v 1 0 0
v 0 0.0625 0
v 0 0.0625 1
v 0 0 0
v 0 0 1
vt 0 1
vt 1 1
vt 1 0.9375
vt 0 0.9375
vt 0 1
vt 1 1
vt 1 0.9375
vt 0 0.9375
vt 0 1
vt 1 1
vt 1 0.9375
vt 0 0.9375
vt 0 1
vt 1 1
vt 1 0.9375
vt 0 0.9375
vt 0 1
vt 1 1
vt 1 0
vt 0 0
vt 0 1
vt 1 1
vt 1 0
vt 0 0
vn 0 0 -1
vn 1 0 0
vn 0 0 1
vn -1 0 0
vn 0 1 0
vn 0 -1 0
usemtl andesite_casing
f 92/252/63 95/251/63 93/250/63 90/249/63
f 91/256/64 92/255/64 90/254/64 89/253/64
f 96/260/65 91/259/65 89/258/65 94/257/65
f 95/264/66 96/263/66 94/262/66 93/261/66
usemtl nether_portal
f 94/268/67 89/267/67 90/266/67 93/265/67
usemtl andesite_casing
f 95/272/68 92/271/68 91/270/68 96/269/68

o stand_post
v 0.53125 0.5625 0.09375
v 0.53125 0.5625 0.03125
v 0.53125 0.125 0.09375
v 0.53125 0.125 0.03125
v 0.46875 0.5625 0.03125
v 0.46875 0.5625 0.09375
v 0.46875 0.125 0.03125
v 0.46875 0.125 0.09375
vt 0.0625 1
vt 0.125 1
vt 0.125 0.5625
vt 0.0625 0.5625
vt 0.0625 1
vt 0.125 1
vt 0.125 0.5625
vt 0.0625 0.5625
vt 0.0625 1
vt 0.125 1
vt 0.125 0.5625
vt 0.0625 0.5625
vt 0.0625 1
vt 0.125 1
vt 0.125 0.5625
vt 0.0625 0.5625
vt 0.0625 1
vt 0.125 1
vt 0.125 0.9375
vt 0.0625 0.9375
vt 0.0625 1
vt 0.125 1
vt 0.125 0.9375
vt 0.0625 0.9375
vn 0 0 -1
vn 1 0 0
vn 0 0 1
vn -1 0 0
vn 0 1 0
vn 0 -1 0
usemtl clipboard
f 100/276/69 103/275/69 101/274/69 98/273/69
f 99/280/70 100/279/70 98/278/70 97/277/70
f 104/284/71 99/283/71 97/282/71 102/281/71
f 103/288/72 104/287/72 102/286/72 101/285/72
f 102/292/73 97/291/73 98/290/73 101/289/73
f 103/296/74 100/295/74 99/294/74 104/293/74

o clipboard
v 0.65625 0.376225953 0.202123412
v 0.65625 0.755112067 -0.016626588
v 0.65625 0.360600953 0.175060118
v 0.65625 0.739487067 -0.043689882
v 0.34375 0.755112067 -0.016626588
v 0.34375 0.376225953 0.202123412
v 0.34375 0.739487067 -0.043689882
v 0.34375 0.360600953 0.175060118
vt 0.0625 0.0625
vt 0.6875 0.0625
vt 0.6875 0
vt 0.0625 0
vt 0 0.9375
vt 0.0625 0.9375
vt 0.0625 0.0625
vt 0 0.0625
vt 0.0625 1
vt 0.6875 1
vt 0.6875 0.9375
vt 0.0625 0.9375
vt 0 0.9375
vt 0.0625 0.9375
vt 0.0625 0.0625
vt 0 0.0625
vt 0.0625 0.9375
vt 0.6875 0.9375
vt 0.6875 0.0625
vt 0.0625 0.0625
vt 0.546875 0.25
vt 0.703125 0.25
vt 0.703125 0
vt 0.546875 0
vn 0 0.866025404 -0.5
vn 1 0 0
vn 0 -0.866025404 0.5
vn -1 0 0
vn 0 0.5 0.866025404
vn 0 -0.5 -0.866025404
usemtl clipboard
f 108/300/75 111/299/75 109/298/75 106/297/75
f 107/301/76 108/304/76 106/303/76 105/302/76
f 112/308/77 107/307/77 105/306/77 110/305/77
f 111/311/78 112/310/78 110/309/78 109/312/78
f 110/316/79 105/315/79 106/314/79 109/313/79
usemtl clipboard_back
f 111/318/80 108/317/80 107/320/80 112/319/80

o stand_post_2
v 0.5625 0.1875 0.125
v 0.5625 0.1875 0
v 0.5625 0.125 0.125
v 0.5625 0.125 0
v 0.4375 0.1875 0
v 0.4375 0.1875 0.125
v 0.4375 0.125 0
v 0.4375 0.125 0.125
vt 0.125 1
vt 0.25 1
vt 0.25 0.9375
vt 0.125 0.9375
vt 0.125 1
vt 0.25 1
vt 0.25 0.9375
vt 0.125 0.9375
vt 0.125 1
vt 0.25 1
vt 0.25 0.9375
vt 0.125 0.9375
vt 0.125 1
vt 0.25 1
vt 0.25 0.9375
vt 0.125 0.9375
vt 0.125 1
vt 0.25 1
vt 0.25 0.875
vt 0.125 0.875
vt 0.125 1
vt 0.25 1
vt 0.25 0.875
vt 0.125 0.875
vn 0 0 -1
vn 1 0 0
vn 0 0 1
vn -1 0 0
vn 0 1 0
vn 0 -1 0
usemtl clipboard
f 116/324/81 119/323/81 117/322/81 114/321/81
f 115/328/82 116/327/82 114/326/82 113/325/82
f 120/332/83 115/331/83 113/330/83 118/329/83
f 119/336/84 120/335/84 118/334/84 117/333/84
f 118/340/85 113/339/85 114/338/85 117/337/85
f 119/344/86 116/343/86 115/342/86 120/341/86


o stockkeeper_hat
v 0.83848821 1.208205867 0.231723161
v 0.834898639 1.27206853 0.790574305
v 0.818925817 1.022920669 0.252770866
v 0.815336246 1.086783331 0.811622009
v 0.275480014 1.32997228 0.78036493
v 0.279069585 1.266109617 0.221513786
v 0.255917621 1.144687081 0.801412634
v 0.259507192 1.080824419 0.242561491
v 0.279069585 1.266109617 0.221513786
v 0.275480014 1.32997228 0.78036493
v 0.259507192 1.080824419 0.242561491
v 0.255917621 1.144687081 0.801412634
v 0.834898639 1.27206853 0.790574305
v 0.83848821 1.208205867 0.231723161
v 0.815336246 1.086783331 0.811622009
v 0.818925817 1.022920669 0.252770866
v 0.844478706 1.143738214 0.226547023
v 0.8424845 1.179217471 0.537019881
v 0.83143711 1.020214748 0.240578826
v 0.829442904 1.055694005 0.551051684
v 0.258202825 1.239694721 0.526356756
v 0.260197031 1.204215464 0.215883898
v 0.245161229 1.116171255 0.540388559
v 0.247155435 1.080691998 0.229915701
v 0.255871048 1.025876988 0.130170845
v 0.815289673 0.967973238 0.14038022
v 0.819543513 1.028355045 0.249746289
v 0.260124888 1.086258795 0.239536914
v 0.259815615 1.084511 0.246570114
v 0.81923424 1.02660725 0.256779489
v 0.814980399 0.966225443 0.14741342
v 0.255561774 1.024129193 0.137204045
vt 0.9375 0.1875
vt 0.9375 0.75
vt 0.75 0.75
vt 0.75 0.1875
vt 0.75 0.75
vt 0.75 0.1875
vt 0.5625 0.1875
vt 0.5625 0.75
vt 0.5625 0.875
vt 0 0.875
vt 0 0.6875
vt 0.5625 0.6875
vt 0.75 0.1875
vt 0.75 0.75
vt 0.5625 0.75
vt 0.5625 0.1875
vt 0.5625 0.6875
vt 0 0.6875
vt 0 0.125
vt 0.5625 0.125
vt 0.9375 0.1875
vt 0.9375 0.75
vt 0.75 0.75
vt 0.75 0.1875
vt 0.75 0.75
vt 0.75 0.1875
vt 0.5625 0.1875
vt 0.5625 0.75
vt 0.5625 0.875
vt 0 0.875
vt 0 0.6875
vt 0.5625 0.6875
vt 0.75 0.1875
vt 0.75 0.75
vt 0.5625 0.75
vt 0.5625 0.1875
vt 0.5625 0.6875
vt 0 0.6875
vt 0 0.125
vt 0.5625 0.125
vt 0.4375 0
vt 0.125 0
vt 0.125 0.125
vt 0.4375 0.125
vt 0.4375 0
vt 1 0
vt 1 0.125
vt 0.4375 0.125
vt 0.125 0
vt 0.4375 0
vt 0.4375 0.125
vt 0.125 0.125
vt 0.5625 1
vt 0 1
vt 0 0.875
vt 0.5625 0.875
vt 0 0.875
vt 0.5625 0.875
vt 0.5625 1
vt 0 1
vn 0.006380132 -0.113533053 -0.993513734
vn -0.994521978 0.102939609 -0.018151354
vn -0.006380132 0.113533053 0.993513734
vn 0.994521978 -0.102939609 0.018151354
vn -0.104332928 -0.988186973 0.112254832
vn -0.006380132 0.113533053 0.993513734
vn -0.994521978 0.102939609 -0.018151354
vn 0.006380132 -0.113533053 -0.993513734
vn 0.994521978 -0.102939609 0.018151354
vn 0.104332928 0.988186973 -0.112254832
vn -0.994521978 0.102939609 -0.018151354
vn -0.006380132 0.113533053 0.993513734
vn 0.994521978 -0.102939609 0.018151354
vn -0.098832596 -0.869518145 0.483911473
vn 0.098832596 0.869518145 -0.483911473
usemtl stockkeeper_hat
f 124/345/87 127/346/87 125/347/87 122/348/87
f 123/349/88 124/350/88 122/351/88 121/352/88
f 128/353/89 123/354/89 121/355/89 126/356/89
f 127/357/90 128/358/90 126/359/90 125/360/90
f 126/361/91 121/362/91 122/363/91 125/364/91
f 132/365/92 135/366/92 133/367/92 130/368/92
f 131/369/93 132/370/93 130/371/93 129/372/93
f 136/373/94 131/374/94 129/375/94 134/376/94
f 135/377/95 136/378/95 134/379/95 133/380/95
f 134/381/96 129/382/96 130/383/96 133/384/96
f 139/385/97 140/386/97 138/387/97 137/388/97
f 144/389/98 139/390/98 137/391/98 142/392/98
f 143/393/99 144/394/99 142/395/99 141/396/99
f 145/397/100 146/398/100 147/399/100 148/400/100
f 149/401/101 150/402/101 151/403/101 152/404/101
